<svg xmlns="http://www.w3.org/2000/svg" xmlns:xlink="http://www.w3.org/1999/xlink" viewBox="0 0 343.8335 92.3222"><defs><style>.cls-1{fill:#fff;}.cls-2{fill:#aeafaf;}.cls-3{fill:url(#linear-gradient);}.cls-4{fill:url(#linear-gradient-2);}.cls-5{fill:url(#linear-gradient-3);}.cls-6{fill:url(#linear-gradient-4);}.cls-7{fill:url(#linear-gradient-5);}.cls-8{fill:url(#linear-gradient-6);}.cls-9{fill:url(#linear-gradient-7);}</style><linearGradient id="linear-gradient" x1="48.6448" y1="49.8193" x2="76.6962" y2="21.7679" gradientUnits="userSpaceOnUse"><stop offset="0" stop-color="#96cde8"/><stop offset="1" stop-color="#57d0ff"/></linearGradient><linearGradient id="linear-gradient-2" x1="46.4922" y1="47.6668" x2="74.5437" y2="19.6154" xlink:href="#linear-gradient"/><linearGradient id="linear-gradient-3" x1="45.1301" y1="46.3047" x2="73.1816" y2="18.2533" xlink:href="#linear-gradient"/><linearGradient id="linear-gradient-4" x1="47.4706" y1="48.6452" x2="75.522" y2="20.5937" xlink:href="#linear-gradient"/><linearGradient id="linear-gradient-5" x1="50.055" y1="51.2296" x2="78.1065" y2="23.1782" xlink:href="#linear-gradient"/><linearGradient id="linear-gradient-6" x1="53.8713" y1="55.0459" x2="81.9227" y2="26.9945" xlink:href="#linear-gradient"/><linearGradient id="linear-gradient-7" x1="56.0917" y1="57.2663" x2="84.1431" y2="29.2149" xlink:href="#linear-gradient"/></defs><g id="Layer_2" data-name="Layer 2"><g id="Layer_1-2" data-name="Layer 1"><path class="cls-1" d="M36.9189,37.1846v2.7148q0,7.77-6.976,12.5957Q26.3972,54.38,25.53,54.3809a21.1662,21.1662,0,0,1-6.75.83H.1123L0,55.0977V.1123L.1123,0H18.3657q8.7869,0,13.9917,5.9209a12.9224,12.9224,0,0,1,2.7905,8.2969v.792A13.9779,13.9779,0,0,1,30.32,25.72v.0752a13.3889,13.3889,0,0,1,3.0171,2.4141A13.0218,13.0218,0,0,1,36.9189,37.1846Zm-7.2407.6406q0-4.94-5.0537-6.75a15.1588,15.1588,0,0,0-5.9951-1.0566H7.353l-.1128.1132V47.8945H19.7969q6.4863,0,9.1269-4.7509a9.3039,9.3039,0,0,0,.7544-3.9981ZM7.3159,22.7773H17.8364q6.6372,0,9.3911-4.7138a6.0953,6.0953,0,0,0,.64-2.6016V13.7656q0-4.1484-5.8076-5.997a16.9012,16.9012,0,0,0-4.7886-.5274H7.3159Z"/><path class="cls-1" d="M115.6909,20.5732V20.61q-1.5841,7.1645-1.7353,7.5048a12.1345,12.1345,0,0,0-6.4107-2.3759h-.603a8.8685,8.8685,0,0,0-6.374,2.6777q-2.0757,2.5282-2.0742,9.5791V54.59l-.0762.1133H91.3657l-.1123-.1133V19.1787l.1123-.0762h7.0518l.0762.0762v2.7149a13.12,13.12,0,0,1,8.5219-3.5079h.9434A16.097,16.097,0,0,1,115.6909,20.5732Z"/><path class="cls-1" d="M146.1328,20.5732V20.61q-1.5842,7.1645-1.7353,7.5048a12.1345,12.1345,0,0,0-6.4107-2.3759h-.603a8.8685,8.8685,0,0,0-6.374,2.6777q-2.0757,2.5282-2.0743,9.5791V54.59l-.0761.1133h-7.0518l-.1123-.1133V19.1787l.1123-.0762h7.0518l.0761.0762v2.7149a13.1206,13.1206,0,0,1,8.522-3.5079h.9434A16.097,16.097,0,0,1,146.1328,20.5732Z"/><path class="cls-1" d="M184.4229,36.9023a19.3714,19.3714,0,0,1-2.3,9.128,22.7146,22.7146,0,0,1-2.15,3.1289,17.2439,17.2439,0,0,1-2.3769,2.376,19.0067,19.0067,0,0,1-1.9233,1.3955,17.81,17.81,0,0,1-9.3526,2.7158h-.3389a17.9867,17.9867,0,0,1-9.8422-3.0166q-.9046-.6783-1.6221-1.2822a13.7179,13.7179,0,0,1-2.1123-2.1123,16.64,16.64,0,0,1-1.4712-1.961,21.8817,21.8817,0,0,1-1.2813-2.3389A18.8266,18.8266,0,0,1,147.88,37.13v-.5664a18.959,18.959,0,0,1,2.1123-8.4844,22.1308,22.1308,0,0,1,1.4326-2.377,24.8677,24.8677,0,0,1,1.9229-2.3,21.6922,21.6922,0,0,1,2.6406-2.1884,17.6139,17.6139,0,0,1,10.144-3.168A17.8791,17.8791,0,0,1,177.37,22.0068a18.9172,18.9172,0,0,1,2.0361,1.8848,18.2016,18.2016,0,0,1,3.6963,5.958A19.3517,19.3517,0,0,1,184.4229,36.9023Zm-7.28-.0742a11.67,11.67,0,0,0-2.98-7.8076,7.66,7.66,0,0,0-1.7334-1.5449,7.5792,7.5792,0,0,0-1.2071-.8311,10.4785,10.4785,0,0,0-12.4077,1.6592,9.0129,9.0129,0,0,0-1.47,1.7354,11.4962,11.4962,0,0,0-2.189,6.8623,11.6838,11.6838,0,0,0,2.6783,7.4677,11.0937,11.0937,0,0,0,8.2968,3.9971A10.596,10.596,0,0,0,173.75,45.124a11.48,11.48,0,0,0,1.8482-2.414,11.764,11.764,0,0,0,1.5454-5.77Z"/><path class="cls-1" d="M231.0835,18.61h8.0312v.0371L233.12,36.2227l-5.5815,16.2529-.7549,2.2637h-7.24a3.293,3.293,0,0,1-.34-1.0567q-1.6215-5.0142-3.0547-9.73l-3.4321-11.0869h-.0381l-5.1289,16.4043-1.6963,5.4688h-7.2778q-.0381,0-.6792-1.9991l-5.3545-15.6113L186.81,20.459l-.6031-1.8467h8.0323q.0381,0,.9052,2.64l5.9585,17.9511,1.0181,3.0166,5.3179-17.1582,1.999-6.4492h6.4482a2.3816,2.3816,0,0,1,.189.64l5.0913,16.33,2.0357,6.6377a20.9841,20.9841,0,0,0,.9428-2.64L229.99,21.8164l1.0933-3.2041Z"/><path class="cls-1" d="M278.4116,36.8662V37.998q0,1.0562-.1636,1.0557H248.96a11.5446,11.5446,0,0,0,3.1088,6.0342,10.4258,10.4258,0,0,0,7.5264,3.28q5.3166,0,8.9175-4.94a5.6168,5.6168,0,0,1,.8179-1.2822q7.0349,2.94,7.1176,3.0166a22.46,22.46,0,0,1-2.5766,3.959,18.7,18.7,0,0,1-14.1944,6.5254h-.164q-8.428,0-14.48-6.9014A18.8717,18.8717,0,0,1,240.8608,36.94v-.15q0-8.8242,7.3223-14.9345a18.6983,18.6983,0,0,1,10.8389-3.81h1.1865a18.2044,18.2044,0,0,1,11.4941,4.4131,18.7679,18.7679,0,0,1,6.709,14.4072Zm-8.8755-4.7148a12.7433,12.7433,0,0,0-3.1909-4.375,10.7288,10.7288,0,0,0-6.79-2.4512q-5.6052,0-9.2041,5.4687l-.6538,1.3946h19.8388Z"/><path class="cls-1" d="M308.833,20.5732V20.61q-1.5842,7.1645-1.7353,7.5048a12.1345,12.1345,0,0,0-6.4107-2.3759h-.603a8.8685,8.8685,0,0,0-6.374,2.6777q-2.0757,2.5282-2.0743,9.5791V54.59l-.0761.1133h-7.0518l-.1123-.1133V19.1787l.1123-.0762H291.56l.0761.0762v2.7149a13.1206,13.1206,0,0,1,8.522-3.5079h.9434A16.097,16.097,0,0,1,308.833,20.5732Z"/><path class="cls-1" d="M343.8335,44.6816v.1123a10.9041,10.9041,0,0,1-2.8662,7.2032,10.1527,10.1527,0,0,1-1.7344,1.5459,14.5248,14.5248,0,0,1-2.4892,1.4716,19.3392,19.3392,0,0,1-8.1841,1.7725h-.2632a18.8412,18.8412,0,0,1-10.333-2.98,17.2549,17.2549,0,0,1-2.1875-1.7734,12.1744,12.1744,0,0,1-1.5083-1.6592,13.8422,13.8422,0,0,1-1.32-1.96l6.2978-3.6211h.0386l.3012.5284a9.0493,9.0493,0,0,0,1.3194,1.5088,9.7769,9.7769,0,0,0,4.2241,2.2627,14.9506,14.9506,0,0,0,3.3179.3759A11.8276,11.8276,0,0,0,334.3682,48a6.1793,6.1793,0,0,0,1.2065-.9434,3.65,3.65,0,0,0,.98-2.3378q0-2.0743-3.2046-3.2813a25.4261,25.4261,0,0,0-3.8853-.83,46.7264,46.7264,0,0,1-9.0512-2.4521,14.51,14.51,0,0,1-2.5264-1.3574,8.6576,8.6576,0,0,1-3.7715-4.7129,8.11,8.11,0,0,1-.4521-2.7159v-.2255a10.1568,10.1568,0,0,1,2.6772-6.7129,13.5509,13.5509,0,0,1,1.6216-1.5088,16.8305,16.8305,0,0,1,2.4141-1.5078,19.3436,19.3436,0,0,1,8.3339-1.7735,17.0135,17.0135,0,0,1,11.7286,4.3008,15.3981,15.3981,0,0,1,1.5454,1.6592l.4521.7158a20.52,20.52,0,0,1-2.0356,1.2822q-1.9255,1.17-4.1113,2.6026a7.4084,7.4084,0,0,0-1.358-1.32,9.8453,9.8453,0,0,0-6.146-1.9219h-.1508a9.9016,9.9016,0,0,0-6.336,1.8838,3.2374,3.2374,0,0,0-1.32,2.4521,1.4332,1.4332,0,0,0,.7173,1.2822,9.5742,9.5742,0,0,0,2.79,1.32,69.2664,69.2664,0,0,0,8.8995,1.998,19.6867,19.6867,0,0,1,3.3564,1.0566,13.7433,13.7433,0,0,1,2.64,1.4327,13.9364,13.9364,0,0,1,1.6963,1.5088A9.8243,9.8243,0,0,1,343.8335,44.6816Z"/><path class="cls-2" d="M58.5386,74.0458h1.4819l4.8443,9.1,4.8442-9.1h1.482V87.0976H69.709V77.2382l-4.8442,9.1-4.8443-9.1v9.8594H58.5386Z"/><path class="cls-2" d="M92.0723,84.1337H84.7964l-1.311,2.9639H81.8706L87.627,74.0458h1.6147l5.7559,13.0518H93.3829Zm-.6079-1.4053-3.02-6.8584-3.04,6.8584Z"/><path class="cls-2" d="M111.9463,82.2724l3.3819,4.8252h-1.691l-3.3056-4.6924h-3.4575v4.6924h-1.4815V74.0458h5.3c2.6978,0,4.8067,1.73,4.8067,4.18A4.1781,4.1781,0,0,1,111.9463,82.2724Zm-5.0722-1.2735h3.5527c2.1274,0,3.5713-1.0254,3.5713-2.7734s-1.4439-2.7735-3.5713-2.7735h-3.5527Z"/><path class="cls-2" d="M126.273,74.0458h1.4819v7.22l6.6109-7.22h1.957l-5.49,5.9658,5.851,7.086h-1.9189l-4.958-6.0791-2.0518,2.165v3.9141H126.273Z"/><path class="cls-2" d="M148.3506,75.452v4.293h7.086v1.4063h-7.086v4.54h7.8648v1.4063H146.85V74.0458h9.3653V75.452Z"/><path class="cls-2" d="M170.79,75.452h-4.3882V74.0458H176.66V75.452h-4.3882V87.0976H170.79Z"/><path class="cls-2" d="M187.3008,74.0458h5.3c2.6978,0,4.8067,1.73,4.8067,4.18s-2.1089,4.18-4.8067,4.18h-3.8183v4.6924h-1.4815Zm5.0342,6.9531c2.1274,0,3.5713-1.0254,3.5713-2.7734s-1.4439-2.7735-3.5713-2.7735h-3.5527v5.5469Z"/><path class="cls-2" d="M216.2173,85.6913v1.4063h-8.6054V74.0458h1.4814V85.6913Z"/><path class="cls-2" d="M235.9585,84.1337h-7.2758l-1.3111,2.9639h-1.6147l5.7563-13.0518h1.6148l5.7558,13.0518h-1.6147Zm-.6079-1.4053L232.33,75.87l-3.0395,6.8584Z"/><path class="cls-2" d="M248.7652,80.5624a6.8084,6.8084,0,0,1,6.687-6.7441,6.5941,6.5941,0,0,1,4.6924,1.9951l-1.0069,1.0254a5.0937,5.0937,0,0,0-3.6855-1.6524,5.39,5.39,0,0,0,0,10.7715,5.0949,5.0949,0,0,0,3.6855-1.6533l1.0069,1.0264a6.6744,6.6744,0,0,1-4.6924,1.9941A6.8254,6.8254,0,0,1,248.7652,80.5624Z"/><path class="cls-2" d="M271.9829,75.452v4.293h7.086v1.4063h-7.086v4.54h7.8648v1.4063h-9.3652V74.0458h9.3652V75.452Z"/><path class="cls-3" d="M86.6664,40.1322V30.7914l-3.1823-.93a20.49,20.49,0,0,0-1.66-4.1849l.4074-.37,1.9818-3.6186L77.6081,15.083l-3.6187,1.9818-.2914.3209a20.4909,20.4909,0,0,0-4.4232-1.8381l-.9767-3.3416H58.9574l-.9767,3.3416a20.48,20.48,0,0,0-4.4781,1.8714l-.2366-.2605-3.6187-1.9818-6.6048,6.6049L45.0243,25.4l.3759.3414a20.4811,20.4811,0,0,0-1.655,4.221l-3.1562.9225v9.3407l3.2607.953A20.427,20.427,0,0,0,45.0751,44.32l-.0508.046-1.9818,3.6187L49.6473,54.59l3.13-1.7141a20.4935,20.4935,0,0,0,5.2035,2.3126l.9768,3.3419h9.3407l.9767-3.342a20.4976,20.4976,0,0,0,5.2845-2.3618l3.0488,1.67,6.6048-6.6049-1.9818-3.6187-.0193-.0175a20.4323,20.4323,0,0,0,1.22-3.1775ZM63.6277,54.5A19.1317,19.1317,0,1,1,82.7594,35.3681,19.1318,19.1318,0,0,1,63.6277,54.5Z"/><polygon class="cls-4" points="50.458 34.165 50.458 31.793 62.027 26.74 67.812 31.434 76.72 27.034 76.72 29.347 67.453 34.014 61.589 29.256 50.458 34.165"/><polygon class="cls-5" points="50.458 35.639 53.446 34.461 53.446 43.326 50.458 43.326 50.458 35.639"/><polyline class="cls-6" points="56.277 43.326 56.277 33.364 59.264 32.065 59.264 43.326"/><polyline class="cls-7" points="62.095 43.326 62.095 32.065 65.083 34.461 65.083 43.326"/><polyline class="cls-8" points="67.914 43.326 67.914 35.693 70.901 34.034 70.901 43.326"/><polyline class="cls-9" points="73.732 43.326 73.732 32.937 76.72 31.371 76.72 43.326"/></g></g></svg>