<?xml version="1.0" encoding="utf-8"?>
<!-- Generator: Adobe Illustrator 24.1.2, SVG Export Plug-In . SVG Version: 6.00 Build 0)  -->
<svg version="1.1" xmlns="http://www.w3.org/2000/svg" xmlns:xlink="http://www.w3.org/1999/xlink" x="0px" y="0px"
	 viewBox="0 0 266.72 48.43" style="enable-background:new 0 0 266.72 48.43;" xml:space="preserve">
<style type="text/css">
	.st0{display:none;}
	.st1{display:inline;}
	.st2{fill:#214185;}
	.st3{display:inline;fill:#FFFFFF;}
	.st4{font-family:'Rubik-Medium';}
	.st5{font-size:30px;}
	.st6{fill-rule:evenodd;clip-rule:evenodd;fill:#FFFFFF;}
	.st7{fill:#FFFFFF;}
	.st8{fill:#7F7F7F;}
	.st9{fill-rule:evenodd;clip-rule:evenodd;fill:#214185;}
</style>
<g id="On_blue" class="st0">
	<g id="bg" class="st1">
		<rect x="-7.71" y="-10.87" class="st2" width="288" height="72"/>
	</g>
	<text transform="matrix(1 0 0 1 34.1677 38.5445)" class="st3 st4 st5">Midtown Capital</text>
	<g class="st1">
		<g>
			<path class="st6" d="M2.94,30.46v7.19l0,0c0.6,0.26,1.24,0.55,1.91,0.89l0.33,0v-0.4c-0.72-0.17-1.46-0.33-2.23-0.49
				c0.09,0.01,0.9,0.15,2.23,0.41V27.4L2.94,30.46z"/>
			<polygon class="st6" points="9.06,38.56 13.28,38.56 13.09,20.79 9.01,16.71 			"/>
			<polygon class="st6" points="21.59,38.56 18.08,38.56 18.08,19.93 13.37,17.21 13.37,5.81 20.49,2.8 21.67,3.85 			"/>
			<polygon class="st6" points="23.86,15.79 23.97,39.57 29.52,40.51 29.52,11.76 			"/>
		</g>
		<path class="st7" d="M32.98,48.01c-8.93-5.82-22.5-8.91-27.8-9.95c-1.33-0.26-2.14-0.39-2.23-0.41c0,0-0.01,0-0.01,0
			c0.76-0.02,1.5-0.03,2.24-0.04c1.33-0.01,2.62,0,3.88,0.02c1.45,0.03,2.85,0.08,4.21,0.16c1.66,0.09,3.26,0.21,4.8,0.36
			c1.2,0.12,2.36,0.25,3.48,0.4c0.82,0.11,1.63,0.22,2.41,0.35c1.97,0.31,3.81,0.66,5.55,1.05c10.37,2.31,16.69,5.81,19.92,8.06
			H32.98z"/>
		<path class="st7" d="M16.26,48.01c-3.48-4.69-7.83-7.66-11.41-9.46c-0.67-0.34-1.31-0.63-1.91-0.89l0,0c0,0,0.01,0,0.01,0
			c0.77,0.16,1.51,0.32,2.23,0.49c10.98,2.57,17.02,6.29,20.32,9.86H16.26z"/>
	</g>
</g>
<g id="On_white">
	<g>
		<path class="st2" d="M36.6,38.35c-0.14-0.14-0.21-0.31-0.21-0.51V18.31c0-0.22,0.06-0.4,0.2-0.54c0.13-0.14,0.3-0.21,0.52-0.21
			h2.43c0.38,0,0.68,0.19,0.9,0.57l5.79,10.74l5.79-10.74c0.22-0.38,0.52-0.57,0.9-0.57h2.4c0.22,0,0.4,0.07,0.54,0.21
			c0.14,0.14,0.21,0.32,0.21,0.54v19.53c0,0.22-0.07,0.4-0.21,0.53c-0.14,0.13-0.32,0.19-0.54,0.19h-2.58
			c-0.2,0-0.37-0.07-0.51-0.21c-0.14-0.14-0.21-0.31-0.21-0.51v-12.9l-4.17,7.92c-0.22,0.44-0.55,0.66-0.99,0.66H45.6
			c-0.42,0-0.76-0.22-1.02-0.66l-4.17-7.92v12.9c0,0.2-0.06,0.37-0.19,0.51c-0.13,0.14-0.31,0.21-0.52,0.21h-2.58
			C36.91,38.56,36.74,38.49,36.6,38.35z"/>
		<path class="st2" d="M60.48,20.2c-0.14-0.14-0.21-0.31-0.21-0.51V17.5c0-0.22,0.07-0.4,0.21-0.54c0.14-0.14,0.31-0.21,0.51-0.21
			h2.76c0.22,0,0.4,0.07,0.54,0.21c0.14,0.14,0.21,0.32,0.21,0.54v2.19c0,0.2-0.07,0.37-0.22,0.51c-0.15,0.14-0.33,0.21-0.53,0.21
			h-2.76C60.79,20.41,60.62,20.34,60.48,20.2z M60.6,38.35c-0.14-0.14-0.21-0.31-0.21-0.51V23.68c0-0.22,0.07-0.4,0.21-0.52
			c0.14-0.13,0.31-0.2,0.51-0.2h2.55c0.2,0,0.37,0.07,0.51,0.21c0.14,0.14,0.21,0.31,0.21,0.51v14.16c0,0.2-0.07,0.37-0.21,0.51
			c-0.14,0.14-0.31,0.21-0.51,0.21h-2.55C60.91,38.56,60.74,38.49,60.6,38.35z"/>
		<path class="st2" d="M69.48,36.92c-1.08-1.29-1.67-3.02-1.77-5.18l-0.03-0.99l0.03-0.99c0.08-2.12,0.66-3.83,1.75-5.15
			c1.09-1.31,2.64-1.96,4.67-1.96c1.92,0,3.45,0.66,4.59,1.98v-6.66c0-0.22,0.07-0.39,0.21-0.52c0.14-0.13,0.31-0.19,0.51-0.19h2.61
			c0.22,0,0.39,0.06,0.53,0.19c0.13,0.13,0.2,0.31,0.2,0.52v19.86c0,0.2-0.07,0.37-0.2,0.51c-0.13,0.14-0.3,0.21-0.53,0.21h-2.43
			c-0.2,0-0.37-0.07-0.51-0.21c-0.14-0.14-0.21-0.31-0.21-0.51v-1.11c-1.1,1.42-2.69,2.13-4.77,2.13
			C72.11,38.86,70.56,38.21,69.48,36.92z M77.81,34.52c0.55-0.73,0.85-1.63,0.91-2.71c0.02-0.24,0.03-0.62,0.03-1.14
			c0-0.54-0.01-0.93-0.03-1.17c-0.04-1-0.35-1.85-0.93-2.55s-1.42-1.05-2.52-1.05c-2.14,0-3.28,1.32-3.42,3.96l-0.03,0.9l0.03,0.9
			c0.14,2.64,1.28,3.96,3.42,3.96C76.41,35.62,77.26,35.25,77.81,34.52z"/>
		<path class="st2" d="M89.73,37.13c-0.92-0.95-1.38-2.34-1.38-4.19v-6.78h-2.37c-0.2,0-0.37-0.07-0.51-0.21
			c-0.14-0.14-0.21-0.31-0.21-0.51v-1.77c0-0.2,0.07-0.37,0.21-0.51c0.14-0.14,0.31-0.21,0.51-0.21h2.37v-4.98
			c0-0.22,0.07-0.39,0.21-0.52c0.14-0.13,0.31-0.19,0.51-0.19h2.49c0.22,0,0.39,0.06,0.52,0.19c0.13,0.13,0.2,0.31,0.2,0.52v4.98
			h3.75c0.2,0,0.37,0.07,0.51,0.21c0.14,0.14,0.21,0.31,0.21,0.51v1.77c0,0.2-0.07,0.37-0.21,0.51c-0.14,0.14-0.31,0.21-0.51,0.21
			h-3.75v6.45c0,0.86,0.15,1.51,0.45,1.95c0.3,0.44,0.79,0.66,1.47,0.66h2.1c0.22,0,0.4,0.07,0.53,0.2s0.2,0.3,0.2,0.52v1.89
			c0,0.2-0.07,0.37-0.2,0.51c-0.13,0.14-0.3,0.21-0.53,0.21h-2.46C92.02,38.56,90.65,38.08,89.73,37.13z"/>
		<path class="st2" d="M101.16,37.06c-1.28-1.2-1.97-2.86-2.07-4.98l-0.03-1.32l0.03-1.32c0.1-2.1,0.8-3.75,2.1-4.96
			c1.3-1.21,3.11-1.81,5.43-1.81c2.3,0,4.1,0.6,5.4,1.81c1.3,1.21,2,2.86,2.1,4.96c0.02,0.24,0.03,0.68,0.03,1.32
			s-0.01,1.08-0.03,1.32c-0.1,2.12-0.79,3.78-2.07,4.98s-3.09,1.8-5.43,1.8C104.26,38.86,102.44,38.26,101.16,37.06z M109.07,34.84
			c0.57-0.66,0.87-1.63,0.91-2.91c0.02-0.2,0.03-0.59,0.03-1.17s-0.01-0.97-0.03-1.17c-0.04-1.28-0.35-2.25-0.93-2.92
			c-0.58-0.67-1.39-1-2.43-1c-1.06,0-1.88,0.33-2.46,1c-0.58,0.67-0.89,1.65-0.93,2.92l-0.03,1.17l0.03,1.17
			c0.04,1.28,0.35,2.25,0.93,2.91c0.58,0.66,1.4,0.99,2.46,0.99C107.68,35.83,108.5,35.5,109.07,34.84z"/>
		<path class="st2" d="M120.3,37.81l-4.29-13.92c-0.02-0.06-0.03-0.15-0.03-0.27c0-0.18,0.06-0.33,0.18-0.46s0.27-0.2,0.45-0.2h2.28
			c0.2,0,0.38,0.06,0.53,0.18c0.15,0.12,0.24,0.25,0.29,0.39l2.91,9.87l3.09-9.78c0.06-0.18,0.17-0.33,0.31-0.46
			c0.15-0.13,0.34-0.2,0.58-0.2h1.53c0.24,0,0.43,0.07,0.58,0.2s0.25,0.28,0.29,0.46l3.12,9.78l2.91-9.87
			c0.04-0.14,0.13-0.27,0.27-0.39c0.14-0.12,0.32-0.18,0.54-0.18h2.25c0.18,0,0.33,0.07,0.46,0.2s0.2,0.28,0.2,0.46l-0.06,0.27
			l-4.29,13.92c-0.08,0.24-0.19,0.43-0.34,0.56c-0.15,0.13-0.36,0.19-0.62,0.19h-1.98c-0.52,0-0.85-0.25-0.99-0.75l-3.09-9.42
			l-3.12,9.42c-0.16,0.5-0.5,0.75-1.02,0.75h-1.95C120.79,38.56,120.46,38.31,120.3,37.81z"/>
		<path class="st2" d="M141.87,38.35c-0.14-0.14-0.21-0.31-0.21-0.51V23.68c0-0.22,0.07-0.4,0.21-0.52c0.14-0.13,0.31-0.2,0.51-0.2
			h2.49c0.22,0,0.39,0.07,0.52,0.2s0.2,0.31,0.2,0.52v1.23c1.22-1.5,2.89-2.25,5.01-2.25c1.84,0,3.3,0.6,4.38,1.8
			c1.08,1.2,1.62,2.85,1.62,4.95v8.43c0,0.2-0.07,0.37-0.2,0.51c-0.13,0.14-0.3,0.21-0.52,0.21h-2.7c-0.2,0-0.37-0.07-0.51-0.21
			c-0.14-0.14-0.21-0.31-0.21-0.51v-8.25c0-1.16-0.29-2.06-0.86-2.71c-0.57-0.65-1.38-0.98-2.44-0.98c-1.02,0-1.84,0.33-2.46,0.99
			s-0.93,1.56-0.93,2.7v8.25c0,0.2-0.07,0.37-0.2,0.51c-0.13,0.14-0.3,0.21-0.52,0.21h-2.67C142.18,38.56,142.01,38.49,141.87,38.35
			z"/>
		<path class="st8" d="M169.31,36.74c-1.51-1.41-2.32-3.42-2.42-6.02c-0.02-0.54-0.03-1.42-0.03-2.64c0-1.24,0.01-2.14,0.03-2.7
			c0.1-2.56,0.91-4.55,2.43-5.98c1.52-1.43,3.65-2.15,6.39-2.15c1.78,0,3.33,0.31,4.65,0.92s2.34,1.44,3.08,2.5
			c0.73,1.06,1.11,2.25,1.16,3.57v0.06c0,0.16-0.07,0.3-0.2,0.4c-0.13,0.11-0.28,0.17-0.43,0.17h-2.91c-0.24,0-0.42-0.05-0.54-0.17
			c-0.12-0.11-0.22-0.3-0.3-0.58c-0.3-1.24-0.82-2.11-1.56-2.62c-0.74-0.51-1.72-0.76-2.94-0.76c-2.86,0-4.35,1.6-4.47,4.8
			c-0.02,0.54-0.03,1.37-0.03,2.49s0.01,1.97,0.03,2.55c0.12,3.2,1.61,4.8,4.47,4.8c1.2,0,2.17-0.25,2.92-0.76
			c0.75-0.51,1.27-1.38,1.58-2.62c0.08-0.28,0.18-0.48,0.3-0.58s0.3-0.17,0.54-0.17h2.91c0.18,0,0.33,0.06,0.46,0.18
			c0.13,0.12,0.18,0.27,0.17,0.45c-0.04,1.32-0.43,2.51-1.16,3.57c-0.73,1.06-1.75,1.9-3.08,2.5c-1.32,0.61-2.87,0.92-4.65,0.92
			C172.95,38.86,170.82,38.15,169.31,36.74z"/>
		<path class="st8" d="M189.53,38.24c-0.85-0.41-1.52-0.96-2.01-1.67c-0.49-0.7-0.74-1.47-0.74-2.31c0-1.36,0.55-2.46,1.65-3.3
			c1.1-0.84,2.61-1.41,4.53-1.71l4.11-0.6v-0.63c0-0.86-0.22-1.51-0.66-1.95c-0.44-0.44-1.14-0.66-2.1-0.66
			c-0.66,0-1.19,0.12-1.59,0.36c-0.4,0.24-0.73,0.48-0.98,0.73s-0.42,0.42-0.5,0.5c-0.08,0.24-0.23,0.36-0.45,0.36h-2.34
			c-0.18,0-0.33-0.06-0.46-0.18s-0.19-0.28-0.19-0.48c0.02-0.5,0.26-1.06,0.73-1.69s1.2-1.18,2.17-1.65
			c0.98-0.47,2.19-0.71,3.63-0.71c2.36,0,4.08,0.53,5.16,1.59c1.08,1.06,1.62,2.45,1.62,4.17v9.42c0,0.2-0.07,0.37-0.19,0.51
			c-0.13,0.14-0.31,0.21-0.53,0.21h-2.49c-0.2,0-0.37-0.07-0.51-0.21c-0.14-0.14-0.21-0.31-0.21-0.51v-1.17
			c-0.44,0.64-1.06,1.17-1.86,1.58s-1.8,0.61-3,0.61C191.31,38.86,190.38,38.65,189.53,38.24z M196.05,34.9
			c0.7-0.72,1.05-1.76,1.05-3.12v-0.6l-3,0.48c-2.3,0.36-3.45,1.13-3.45,2.31c0,0.64,0.26,1.14,0.79,1.48
			c0.53,0.35,1.17,0.52,1.91,0.52C194.45,35.98,195.35,35.62,196.05,34.9z"/>
		<path class="st8" d="M205.2,44.06c-0.14-0.13-0.21-0.31-0.21-0.52V23.68c0-0.22,0.07-0.4,0.21-0.52s0.31-0.2,0.51-0.2h2.4
			c0.22,0,0.4,0.07,0.54,0.21c0.14,0.14,0.21,0.31,0.21,0.51v1.2c1.06-1.48,2.65-2.22,4.77-2.22c2.02,0,3.57,0.64,4.65,1.9
			c1.08,1.27,1.66,2.98,1.74,5.12c0.02,0.24,0.03,0.6,0.03,1.08s-0.01,0.84-0.03,1.08c-0.06,2.1-0.63,3.8-1.72,5.09
			c-1.09,1.29-2.65,1.93-4.67,1.93c-2,0-3.53-0.71-4.59-2.13v6.81c0,0.22-0.06,0.39-0.19,0.52c-0.13,0.13-0.31,0.2-0.53,0.2h-2.61
			C205.51,44.26,205.34,44.19,205.2,44.06z M215.91,31.66c0.02-0.2,0.03-0.5,0.03-0.9s-0.01-0.7-0.03-0.9
			c-0.14-2.64-1.28-3.96-3.42-3.96c-1.14,0-1.99,0.37-2.55,1.11c-0.56,0.74-0.86,1.64-0.9,2.7c-0.02,0.24-0.03,0.62-0.03,1.14
			c0,0.52,0.01,0.91,0.03,1.17c0.04,1,0.35,1.85,0.93,2.55c0.58,0.7,1.42,1.05,2.52,1.05C214.63,35.62,215.77,34.3,215.91,31.66z"/>
		<path class="st8" d="M223.47,20.2c-0.14-0.14-0.21-0.31-0.21-0.51V17.5c0-0.22,0.07-0.4,0.21-0.54c0.14-0.14,0.31-0.21,0.51-0.21
			h2.76c0.22,0,0.4,0.07,0.54,0.21c0.14,0.14,0.21,0.32,0.21,0.54v2.19c0,0.2-0.08,0.37-0.22,0.51c-0.15,0.14-0.33,0.21-0.53,0.21
			h-2.76C223.78,20.41,223.61,20.34,223.47,20.2z M223.59,38.35c-0.14-0.14-0.21-0.31-0.21-0.51V23.68c0-0.22,0.07-0.4,0.21-0.52
			c0.14-0.13,0.31-0.2,0.51-0.2h2.55c0.2,0,0.37,0.07,0.51,0.21c0.14,0.14,0.21,0.31,0.21,0.51v14.16c0,0.2-0.07,0.37-0.21,0.51
			c-0.14,0.14-0.31,0.21-0.51,0.21h-2.55C223.9,38.56,223.73,38.49,223.59,38.35z"/>
		<path class="st8" d="M234.3,37.13c-0.92-0.95-1.38-2.34-1.38-4.19v-6.78h-2.37c-0.2,0-0.37-0.07-0.51-0.21
			c-0.14-0.14-0.21-0.31-0.21-0.51v-1.77c0-0.2,0.07-0.37,0.21-0.51c0.14-0.14,0.31-0.21,0.51-0.21h2.37v-4.98
			c0-0.22,0.07-0.39,0.21-0.52c0.14-0.13,0.31-0.19,0.51-0.19h2.49c0.22,0,0.39,0.06,0.52,0.19c0.13,0.13,0.2,0.31,0.2,0.52v4.98
			h3.75c0.2,0,0.37,0.07,0.51,0.21c0.14,0.14,0.21,0.31,0.21,0.51v1.77c0,0.2-0.07,0.37-0.21,0.51c-0.14,0.14-0.31,0.21-0.51,0.21
			h-3.75v6.45c0,0.86,0.15,1.51,0.45,1.95c0.3,0.44,0.79,0.66,1.47,0.66h2.1c0.22,0,0.4,0.07,0.53,0.2s0.2,0.3,0.2,0.52v1.89
			c0,0.2-0.07,0.37-0.2,0.51c-0.13,0.14-0.3,0.21-0.53,0.21h-2.46C236.59,38.56,235.22,38.08,234.3,37.13z"/>
		<path class="st8" d="M245.99,38.24c-0.85-0.41-1.52-0.96-2.01-1.67c-0.49-0.7-0.74-1.47-0.74-2.31c0-1.36,0.55-2.46,1.65-3.3
			c1.1-0.84,2.61-1.41,4.53-1.71l4.11-0.6v-0.63c0-0.86-0.22-1.51-0.66-1.95c-0.44-0.44-1.14-0.66-2.1-0.66
			c-0.66,0-1.19,0.12-1.59,0.36c-0.4,0.24-0.73,0.48-0.98,0.73s-0.42,0.42-0.5,0.5c-0.08,0.24-0.23,0.36-0.45,0.36h-2.34
			c-0.18,0-0.33-0.06-0.46-0.18s-0.19-0.28-0.19-0.48c0.02-0.5,0.26-1.06,0.73-1.69s1.2-1.18,2.17-1.65
			c0.98-0.47,2.19-0.71,3.63-0.71c2.36,0,4.08,0.53,5.16,1.59c1.08,1.06,1.62,2.45,1.62,4.17v9.42c0,0.2-0.07,0.37-0.19,0.51
			c-0.13,0.14-0.31,0.21-0.53,0.21h-2.49c-0.2,0-0.37-0.07-0.51-0.21c-0.14-0.14-0.21-0.31-0.21-0.51v-1.17
			c-0.44,0.64-1.06,1.17-1.86,1.58s-1.8,0.61-3,0.61C247.77,38.86,246.83,38.65,245.99,38.24z M252.51,34.9
			c0.7-0.72,1.05-1.76,1.05-3.12v-0.6l-3,0.48c-2.3,0.36-3.45,1.13-3.45,2.31c0,0.64,0.26,1.14,0.79,1.48
			c0.53,0.35,1.17,0.52,1.91,0.52C250.91,35.98,251.81,35.62,252.51,34.9z"/>
		<path class="st8" d="M261.66,38.35c-0.14-0.14-0.21-0.31-0.21-0.51V17.98c0-0.22,0.07-0.39,0.21-0.52
			c0.14-0.13,0.31-0.19,0.51-0.19h2.52c0.22,0,0.39,0.06,0.53,0.19c0.13,0.13,0.19,0.31,0.19,0.52v19.86c0,0.2-0.06,0.37-0.19,0.51
			c-0.13,0.14-0.31,0.21-0.53,0.21h-2.52C261.97,38.56,261.8,38.49,261.66,38.35z"/>
	</g>
	<g>
		<g>
			<path class="st9" d="M1.28,29.63v7.71l0,0c0.65,0.28,1.33,0.59,2.05,0.95l0.35,0v-0.43c-0.77-0.18-1.57-0.36-2.39-0.52
				c0.1,0.02,0.97,0.16,2.39,0.44V26.35L1.28,29.63z"/>
			<polygon class="st9" points="7.84,38.3 12.36,38.3 12.16,19.27 7.78,14.9 			"/>
			<polygon class="st9" points="21.26,38.3 17.5,38.3 17.5,18.35 12.45,15.44 12.45,3.23 20.08,0 21.34,1.12 			"/>
			<polygon class="st9" points="23.7,13.92 23.81,39.39 29.75,40.39 29.75,9.59 			"/>
		</g>
		<path class="st8" d="M33.46,48.43c-9.56-6.24-24.1-9.54-29.79-10.65c-1.42-0.28-2.29-0.42-2.39-0.44c0,0-0.01,0-0.01,0
			c0.81-0.02,1.61-0.03,2.4-0.04c1.42-0.01,2.81,0,4.16,0.02c1.55,0.03,3.06,0.09,4.52,0.17c1.78,0.1,3.5,0.23,5.15,0.39
			c1.28,0.12,2.52,0.27,3.73,0.42c0.88,0.12,1.74,0.24,2.58,0.37c2.11,0.33,4.09,0.71,5.94,1.12c11.11,2.47,17.88,6.23,21.34,8.63
			H33.46z"/>
		<path class="st8" d="M15.55,48.43c-3.73-5.03-8.39-8.21-12.22-10.14c-0.71-0.36-1.4-0.67-2.05-0.95l0,0c0,0,0.01,0,0.01,0
			c0.82,0.17,1.62,0.34,2.39,0.52c11.76,2.76,18.24,6.74,21.77,10.57H15.55z"/>
	</g>
</g>
</svg>
